<svg width="191" height="32" viewBox="0 0 191 32" fill="none" xmlns="http://www.w3.org/2000/svg">
<path d="M12.9 21.26H4.9C4.7 21.26 4.56 21.14 4.56 20.9C4.56 20.74 4.64 20.5 4.82 20.2C5.16 19.66 5.62 18.86 5.86 17.06V1.5C3.42 2.1 3.7 5.86 2.16 6.4C2.02 6.44 1.88 6.48 1.76 6.48C0.68 6.48 0.2 4.76 0.2 3.96V1.5H0.96H0.2V-2.38419e-07H17.62V1.5H16.86H17.62V4.14C17.54 4.98 17.06 6.48 16.06 6.48C15.94 6.48 15.8 6.46 15.66 6.4C14.1 5.86 14.4 2.1 11.96 1.5V17.06C12.18 18.88 12.66 19.66 12.98 20.2C13.16 20.5 13.24 20.74 13.24 20.9C13.24 21.14 13.1 21.26 12.9 21.26ZM26.3125 21.42C26.5125 21.42 26.6525 21.3 26.6525 21.06C26.6525 20.9 26.5725 20.66 26.3925 20.36C26.0725 19.82 25.5925 19.02 25.3725 17.22V15.84H25.3925C25.3925 9.88 29.7925 6.28 35.1125 6.28L35.8725 6.3C37.2725 6.3 38.0125 4.98 38.0125 3.58C38.0125 1.94 37.0125 0.18 34.8725 0.18C28.4925 0.219999 30.0525 6.86 25.3725 8.34C25.5325 7.86 25.8525 7.1 25.8525 6.52C25.8525 6.06 25.6325 5.76 25.1925 5.76C24.0525 5.76 21.7725 7.5 20.0925 7.5C19.3525 7.5 18.0325 8.3 18.0325 9.2C18.0325 9.44 18.1325 9.7 18.3725 9.94C18.7525 10.32 19.2925 10.94 19.2925 12.38V17.22C19.0525 19.02 18.5925 19.82 18.2725 20.36C18.0925 20.66 18.0125 20.9 18.0125 21.08C18.0125 21.3 18.1325 21.42 18.3325 21.42H26.3125ZM33.2925 21.42C31.5125 21.42 29.6725 20.9 28.5925 18.98C28.3325 18.5 28.2125 18.06 28.2125 17.64C28.2125 15.94 30.1725 14.8 31.6125 14.72C33.3125 14.64 35.2325 13.86 36.6325 13.06C37.6325 12.48 37.9925 11.7 37.9925 10.94C37.9925 9.84 37.2725 8.78 36.6925 8.78C36.1125 8.78 35.3525 9.6 35.3525 10.06C35.3525 10.46 35.7325 10.82 35.7325 11.36C35.7325 11.74 35.5525 12.22 34.8925 12.86C34.0325 13.7 32.7325 13.7 31.5725 13.72C30.1125 13.72 28.6925 12.78 28.6925 11.48C28.6925 8.92 32.6725 7.24 36.7125 7.24C41.4125 7.3 43.8125 10.7 43.9325 14.14V17.22C44.1725 19.02 44.6325 19.82 44.9525 20.34C45.1325 20.64 45.2125 20.88 45.2125 21.06C45.2125 21.28 45.0925 21.4 44.8925 21.4H37.8325V19.86C37.0525 20.24 36.8325 21.22 33.9125 21.4L33.2925 21.42ZM35.7725 18.56C36.1525 18.56 36.5325 18.48 36.8725 18.34L37.8325 17.86V13.9C35.2325 15.7 34.3725 15.78 34.3125 17.42C34.3125 18.24 35.0125 18.56 35.7725 18.56ZM58.7672 21.42H53.1872C49.7072 21.34 47.6872 18.72 46.7672 15.66L46.0472 11.44C45.5672 9.68 44.6472 8.84 44.3272 8.3C44.1472 8 44.0672 7.76 44.0672 7.6C44.0672 7.36 44.2072 7.24 44.4072 7.24H52.7672C52.9672 7.24 53.1072 7.36 53.1072 7.6C53.1072 7.76 53.0272 8 52.8472 8.3C52.5872 8.74 52.2672 9.28 52.2672 10.5C52.2672 10.78 52.2872 11.08 52.3272 11.44L53.3072 19.6L55.2672 11.26C55.3472 10.4 55.4072 9.8 55.4072 9.34C55.4072 8.88 55.3472 8.56 55.1872 8.3C55.0072 8 54.9272 7.76 54.9272 7.6C54.9272 7.36 55.0672 7.24 55.2672 7.24H63.9272C64.1272 7.24 64.2672 7.36 64.2672 7.6C64.2672 7.76 64.1872 8 64.0072 8.3C63.6872 8.82 62.2872 9.64 61.7672 11.34L58.7672 21.42ZM71.5464 21.28C66.7464 21.2 63.2664 18.16 63.2664 14.16C63.2664 10.26 66.7464 7.12 71.5864 7.12C75.0464 7.18 77.0864 7.96 78.0464 10.56C78.1064 10.72 78.1464 10.88 78.1464 11.04C78.1464 12.34 75.8064 13.08 73.7264 14L69.4464 16C69.6264 17.02 70.2864 19.78 71.5464 19.78C72.4864 19.78 72.2664 18.28 72.4264 16.8C72.5864 15.22 74.1264 14.46 75.6064 14.46C77.0264 14.46 78.3864 15.16 78.3864 16.52C78.3864 16.7 78.3664 16.88 78.3264 17.06C77.6664 19.86 75.1464 21.28 71.5464 21.28ZM69.3664 14.4L72.7864 12.78C72.6464 12.1 72.2064 11.12 71.9464 10.4C71.5864 9.42 71.1264 8.62 70.5264 8.62C69.3264 8.62 69.6664 10.42 69.4464 12.66C69.4064 13.02 69.3664 14.06 69.3664 14.4ZM86.9384 21.42H78.9384C78.7384 21.42 78.5984 21.3 78.5984 21.06C78.5984 20.9 78.6784 20.66 78.8584 20.36C79.1984 19.84 79.6584 19.04 79.8984 17.22V7.12C79.8984 5.7 79.3584 5.06 78.9784 4.68C78.7384 4.44 78.6384 4.18 78.6384 3.92C78.6384 3.04 79.9384 2.24 80.6984 2.24C82.3784 2.24 84.6384 0.499999 85.7784 0.499999C86.2584 0.499999 86.4584 0.799999 86.4584 1.26C86.4584 1.8 86.1784 2.52 85.9984 3V5C85.9984 15.06 85.9984 15.8 85.9784 17.26C86.2184 19.04 86.6784 19.84 87.0184 20.36C87.1984 20.66 87.2584 20.9 87.2584 21.08C87.2584 21.3 87.1384 21.42 86.9384 21.42Z" fill="#424242"/>
<path d="M107.421 21.46H99.2009C99.0209 21.46 98.9409 21.38 98.9409 21.2C98.9409 20.92 99.2009 20.52 99.2009 19.7C99.2009 18.96 99.0409 17.94 98.9009 16.74L98.4209 14.86H92.2409L91.7409 16.74C91.6209 17.94 91.4409 19 91.4409 19.72C91.4409 20.52 91.7009 20.92 91.7009 21.18C91.7009 21.38 91.6209 21.46 91.4409 21.46H88.0009C87.8009 21.46 87.6609 21.34 87.6609 21.1C87.6609 20.92 87.7409 20.68 87.9209 20.38C88.2409 19.84 90.0809 17.18 91.0409 13.48L94.5409 0.259999V0.2H100.881L104.381 13.48C105.341 17.18 107.181 19.84 107.501 20.38C107.681 20.68 107.761 20.92 107.761 21.1C107.761 21.34 107.621 21.46 107.421 21.46ZM98.0209 13.34L95.3209 3.14L92.6409 13.34H98.0209ZM119.132 31.24C118.032 31.24 116.952 30.54 116.952 28.98L116.992 28.5C117.132 27.4 118.372 27.38 118.372 26.02C118.372 25.9 118.352 25.74 118.332 25.58C116.172 28.74 113.052 30.44 110.812 30.48C108.312 30.48 106.372 27.78 106.372 25.22C106.372 24.46 106.532 23.74 106.892 23.08C107.872 21.36 110.412 20.36 112.512 19.5C112.772 19.4 113.032 19.26 113.272 19.12C108.672 18.76 106.372 16.04 106.372 13.32C106.372 10.42 109.012 7.52 114.332 7.52L115.952 5.6C117.272 3.86 118.552 3.04 119.732 3.04C121.012 3.04 122.332 4.06 122.332 5.3C122.332 6.42 121.352 7.54 119.312 7.64C118.732 7.66 118.212 7.86 117.732 8.08C120.572 9.08 121.992 11.24 122.012 13.4C122.012 13.62 121.992 13.82 121.972 14.02C121.552 19.34 118.172 20.72 115.472 21.9C114.652 22.28 112.052 22.64 112.052 23.8C112.092 24.7 112.512 25.02 113.012 25.02C114.052 25.02 115.672 23.7 116.472 23.06C117.112 22.58 117.732 22.38 118.292 22.38C120.492 22.38 122.072 25.42 122.072 27.78C122.072 29.56 121.072 31.24 119.132 31.24ZM114.332 17.64C115.392 17.64 115.912 15.48 115.912 13.32C115.912 11.18 115.392 9.04 114.332 9.04C113.092 9.04 112.472 11.18 112.472 13.34C112.472 15.48 113.092 17.64 114.332 17.64ZM131.41 21.28C126.61 21.2 123.13 18.16 123.13 14.16C123.13 10.26 126.61 7.12 131.45 7.12C134.91 7.18 136.95 7.96 137.91 10.56C137.97 10.72 138.01 10.88 138.01 11.04C138.01 12.34 135.67 13.08 133.59 14L129.31 16C129.49 17.02 130.15 19.78 131.41 19.78C132.35 19.78 132.13 18.28 132.29 16.8C132.45 15.22 133.99 14.46 135.47 14.46C136.89 14.46 138.25 15.16 138.25 16.52C138.25 16.7 138.23 16.88 138.19 17.06C137.53 19.86 135.01 21.28 131.41 21.28ZM129.23 14.4L132.65 12.78C132.51 12.1 132.07 11.12 131.81 10.4C131.45 9.42 130.99 8.62 130.39 8.62C129.19 8.62 129.53 10.42 129.31 12.66C129.27 13.02 129.23 14.06 129.23 14.4ZM156.468 21.42H148.468C148.268 21.42 148.128 21.3 148.128 21.06C148.128 20.9 148.208 20.66 148.388 20.36C148.708 19.82 149.188 19.02 149.408 17.22V14.46L149.428 12.32C149.428 10.44 149.288 8.74 148.288 8.74C147.468 8.74 146.708 8.98 146.448 10.02V17.22C146.668 19.02 147.148 19.82 147.468 20.36C147.648 20.66 147.728 20.9 147.728 21.06C147.728 21.3 147.588 21.42 147.388 21.42H139.388C139.188 21.42 139.048 21.3 139.048 21.06C139.048 20.9 139.128 20.66 139.308 20.36C139.628 19.82 140.108 19.02 140.328 17.22V13.18C140.328 11.76 139.788 11.12 139.428 10.74C139.188 10.5 139.088 10.24 139.088 10C139.088 9.1 140.388 8.32 141.148 8.32C142.828 8.32 145.088 6.58 146.228 6.58C146.668 6.58 146.908 6.84 146.908 7.32C147.348 7.28 147.808 7.24 148.288 7.24C152.988 7.32 155.388 11.08 155.508 14.9V17.22C155.748 19.02 156.208 19.82 156.548 20.36C156.728 20.66 156.808 20.9 156.808 21.06C156.808 21.3 156.668 21.42 156.468 21.42ZM165.277 21.28C160.297 21.2 156.977 18.1 156.977 14C157.097 10.2 160.557 7.2 165.277 7.12C168.877 7.12 171.397 8.42 172.057 11.22C172.097 11.4 172.117 11.58 172.117 11.76C172.117 13.12 170.757 13.82 169.317 13.82C167.837 13.82 166.297 13.06 166.137 11.48C165.997 10 166.217 8.62 165.277 8.62C163.737 8.62 163.097 11.62 163.097 14.4C163.117 16.92 163.817 19.78 165.277 19.78C166.217 19.78 165.997 18.4 166.137 16.92C166.297 15.34 167.837 14.58 169.317 14.58C170.757 14.58 172.117 15.28 172.117 16.64C172.117 16.82 172.097 17 172.057 17.18C171.397 19.98 168.877 21.28 165.277 21.28ZM181.969 29.58C178.369 29.58 174.349 28.22 173.689 25.42C173.649 25.24 173.629 25.06 173.629 24.88C173.629 23.48 175.009 22.82 176.469 22.82C177.949 22.82 179.469 23.58 179.629 25.16C179.789 26.64 181.029 28.06 181.969 28.06C182.949 28.06 183.109 26.4 183.109 24.54V21.1C182.429 21.3 181.669 21.42 180.849 21.42C176.029 21.34 173.629 17.76 173.629 14.22L173.609 11.44C173.389 9.64 172.909 8.84 172.589 8.3C172.409 8 172.329 7.76 172.329 7.6C172.329 7.36 172.469 7.24 172.669 7.24H180.669C180.869 7.24 181.009 7.36 181.009 7.6C181.009 7.76 180.929 8 180.749 8.3C180.409 8.84 179.949 9.64 179.709 11.44V14.34C179.709 17.12 180.449 19.92 181.929 19.92C182.829 19.92 183.049 18.78 183.089 17.18L183.109 11.44C182.869 9.64 182.409 8.84 182.069 8.3C181.889 8 181.809 7.76 181.809 7.6C181.809 7.36 181.949 7.24 182.149 7.24H190.149C190.349 7.24 190.489 7.36 190.489 7.6C190.489 7.76 190.409 8 190.229 8.3C189.909 8.84 189.429 9.64 189.209 11.44V21.94C189.089 25.76 186.689 29.5 181.969 29.58Z" fill="#FF8D41"/>
</svg>
